<?xml version="1.0" standalone="no"?>
<!DOCTYPE svg PUBLIC "-//W3C//DTD SVG 20010904//EN"
 "http://www.w3.org/TR/2001/REC-SVG-20010904/DTD/svg10.dtd">
<svg version="1.0" xmlns="http://www.w3.org/2000/svg"
 width="1280.000000pt" height="499.000000pt" viewBox="0 0 1280.000000 499.000000"
 preserveAspectRatio="xMidYMid meet">
<metadata>
Created by potrace 1.15, written by Peter Selinger 2001-2017
</metadata>
<g transform="translate(0.000000,499.000000) scale(0.100000,-0.100000)"
fill="#D6691A" stroke="none">
<path d="M1105 4331 c-3 -6 9 -14 27 -19 41 -12 494 -200 763 -317 347 -151
477 -205 496 -205 11 0 19 -4 19 -9 0 -5 68 -37 150 -72 83 -35 150 -67 150
-71 0 -4 -13 -8 -30 -8 -50 0 -227 -22 -240 -30 -9 -6 -8 -21 6 -64 10 -31 21
-56 25 -56 4 0 17 -30 29 -67 13 -38 28 -81 35 -98 7 -16 23 -59 35 -95 12
-36 28 -78 35 -95 8 -16 91 -250 185 -520 95 -269 196 -557 226 -639 30 -82
53 -151 51 -152 -2 -2 -104 14 -228 36 -287 52 -981 162 -1259 200 -225 31
-320 36 -411 21 -30 -5 -89 -15 -131 -21 -43 -7 -75 -17 -72 -21 3 -5 15 -9
28 -9 12 0 155 -38 317 -85 162 -47 523 -149 803 -225 280 -77 511 -142 514
-144 9 -10 -11 -23 -112 -76 -112 -58 -129 -78 -108 -124 8 -18 6 -25 -7 -34
-13 -9 1 -11 64 -10 44 0 136 -9 205 -20 144 -24 279 -42 577 -76 221 -26 266
-39 323 -91 l25 -23 80 19 c44 10 100 25 125 32 36 12 92 13 290 7 135 -4 441
-6 680 -4 l435 3 174 35 c198 41 195 41 188 22 -11 -27 7 -26 32 3 23 25 41
32 141 51 63 12 212 42 330 67 118 25 247 47 285 49 556 25 728 44 1165 134
156 32 289 55 295 51 19 -16 180 -21 284 -11 92 10 108 9 147 -7 24 -10 44
-20 44 -23 -1 -3 -24 -21 -52 -40 -77 -52 -75 -64 8 -56 38 4 103 12 145 18
51 7 81 8 94 1 15 -9 11 -15 -38 -49 -86 -60 -79 -64 50 -35 47 10 86 14 91 9
5 -5 22 -1 40 9 30 17 34 17 120 -5 l89 -24 59 25 c47 21 55 27 39 32 -44 14
-60 24 -45 25 8 1 50 7 93 14 42 7 77 10 77 7 0 -3 -30 -25 -65 -49 -36 -23
-65 -47 -65 -52 0 -6 1 -10 3 -10 1 0 53 -7 116 -14 88 -11 117 -19 132 -34
10 -11 27 -23 39 -27 11 -3 20 -10 20 -15 0 -4 12 -11 27 -15 41 -10 56 -25
42 -41 -9 -11 -5 -15 21 -20 21 -5 27 -9 19 -15 -18 -11 -4 -15 102 -29 62 -8
111 -9 182 -1 54 6 109 8 122 5 14 -3 25 -2 25 4 0 5 30 12 68 16 101 10 347
62 431 91 140 47 203 106 252 234 29 74 31 203 5 279 -24 71 -88 164 -133 195
-78 53 -116 58 -398 60 l-260 1 -216 -62 c-120 -34 -221 -62 -225 -62 -5 1 12
12 38 26 27 13 48 31 48 38 0 8 22 28 50 45 43 27 99 41 447 112 654 133 1186
247 1393 299 235 59 517 151 697 230 97 42 135 54 143 46 8 -8 10 -7 5 5 -4
10 6 20 32 33 99 47 224 156 254 221 26 55 24 95 -7 141 -105 157 -481 436
-632 469 -18 4 -38 15 -45 26 -6 10 -15 19 -20 19 -4 0 -5 -4 -2 -10 8 -13 7
-13 -120 10 -249 45 -431 50 -721 20 -288 -30 -453 -58 -857 -146 l-258 -57
-31 29 -31 29 6 -32 6 -32 -67 -15 c-205 -45 -1617 -344 -1847 -391 -63 -12
-131 -18 -395 -31 -105 -5 -150 -13 -366 -70 l-170 -46 -455 92 c-900 181
-1847 423 -2909 741 -352 106 -1242 389 -1256 400 -6 5 -13 6 -17 3 -3 -3 -77
11 -164 31 -87 20 -257 59 -378 85 -121 27 -272 63 -335 79 -113 30 -223 40
-235 22z m2005 -843 c67 -25 78 -34 51 -43 -24 -7 -28 -25 -6 -25 8 0 25 5 39
11 22 11 51 2 231 -67 113 -43 205 -81 205 -84 0 -3 -22 -23 -50 -44 -53 -41
-67 -70 -27 -61 12 3 72 14 132 25 l110 19 367 -132 c202 -73 368 -135 368
-139 0 -3 -23 -24 -51 -47 -27 -22 -49 -43 -47 -47 5 -10 175 -4 255 10 l72
12 168 -61 c93 -34 179 -68 192 -74 13 -7 34 -10 49 -6 21 5 23 4 14 -7 -9
-11 10 -23 93 -62 65 -30 112 -46 125 -43 16 4 19 2 11 -7 -8 -9 4 -20 49 -41
37 -18 55 -31 48 -35 -7 -4 -133 -33 -280 -65 l-268 -59 -24 23 -24 23 -4 -28
c-3 -26 -8 -29 -92 -50 -50 -13 -94 -20 -99 -17 -5 3 -12 1 -16 -4 -3 -5 -62
-24 -131 -42 -95 -24 -136 -30 -170 -26 -66 10 -197 77 -276 142 -64 53 -1104
1071 -1104 1081 0 2 8 1 18 -3 9 -4 42 -16 72 -27z"/>
</g>
</svg>
